<svg xmlns="http://www.w3.org/2000/svg" viewBox="0 0 19 13"><path
    fill-rule="evenodd"
    d="M5.204 3.419a.997.997 0 0 0 0-1.401l-.013-.013a.975.975 0 0 0-1.388 0L.288 5.553a.998.998 0 0 0 0 1.402l3.515 3.548a.975.975 0 0 0 1.388 0l.013-.013a.997.997 0 0 0 0-1.401L3.09 6.955a.998.998 0 0 1 0-1.402l2.114-2.134zm13.508 2.134-3.515-3.548a.975.975 0 0 0-1.388 0l-.013.013a.997.997 0 0 0 0 1.401l2.115 2.134a.998.998 0 0 1 0 1.402l-2.115 2.134a.997.997 0 0 0 0 1.401l.013.013a.975.975 0 0 0 1.388 0l3.515-3.548a.998.998 0 0 0 0-1.402zm-5.903-4.145-5.062 10.83c-.164.341-.452.762-.823.762h-.02c-.721 0-1.192-.98-.873-1.641L11.064.631c.164-.34.772-.606.772-.606V0c.982 0 1.292.747.973 1.408z"
    fill="#00FFB6"
  /></svg>
